<mxfile host="app.diagrams.net" modified="2022-10-13T23:08:40.924Z" agent="5.0 (Windows NT 10.0; Win64; x64) AppleWebKit/537.36 (KHTML, like Gecko) Chrome/106.0.0.0 Safari/537.36" etag="2gVmz5jLql0V8cDGCB2a" version="20.4.0" type="github">
  <diagram id="lR_T5Dd5HNas6Ou19CMn" name="Страница 1">
    <mxGraphModel dx="1422" dy="737" grid="1" gridSize="10" guides="1" tooltips="1" connect="1" arrows="1" fold="1" page="1" pageScale="1" pageWidth="827" pageHeight="1169" background="none" math="0" shadow="0">
      <root>
        <mxCell id="0" />
        <mxCell id="1" parent="0" />
        <mxCell id="xxTstOOIaGTohyc_OBlN-3" value="" style="edgeStyle=orthogonalEdgeStyle;rounded=0;orthogonalLoop=1;jettySize=auto;html=1;fontSize=18;" edge="1" parent="1" source="xxTstOOIaGTohyc_OBlN-4" target="xxTstOOIaGTohyc_OBlN-5">
          <mxGeometry relative="1" as="geometry" />
        </mxCell>
        <mxCell id="xxTstOOIaGTohyc_OBlN-4" value="начало" style="ellipse;whiteSpace=wrap;html=1;fontSize=18;" vertex="1" parent="1">
          <mxGeometry x="340" y="10" width="120" height="80" as="geometry" />
        </mxCell>
        <mxCell id="xxTstOOIaGTohyc_OBlN-10" style="edgeStyle=orthogonalEdgeStyle;rounded=0;orthogonalLoop=1;jettySize=auto;html=1;exitX=0.5;exitY=1;exitDx=0;exitDy=0;fontSize=18;" edge="1" parent="1" source="xxTstOOIaGTohyc_OBlN-5" target="xxTstOOIaGTohyc_OBlN-6">
          <mxGeometry relative="1" as="geometry" />
        </mxCell>
        <mxCell id="xxTstOOIaGTohyc_OBlN-5" value="arr[]&lt;br&gt;count = 0&lt;br&gt;i = 0" style="whiteSpace=wrap;html=1;fontSize=18;" vertex="1" parent="1">
          <mxGeometry x="340" y="120" width="120" height="60" as="geometry" />
        </mxCell>
        <mxCell id="xxTstOOIaGTohyc_OBlN-8" style="edgeStyle=orthogonalEdgeStyle;rounded=0;orthogonalLoop=1;jettySize=auto;html=1;exitX=0;exitY=0.5;exitDx=0;exitDy=0;entryX=0.5;entryY=0;entryDx=0;entryDy=0;fontSize=18;" edge="1" parent="1" source="xxTstOOIaGTohyc_OBlN-6" target="xxTstOOIaGTohyc_OBlN-7">
          <mxGeometry relative="1" as="geometry" />
        </mxCell>
        <mxCell id="xxTstOOIaGTohyc_OBlN-9" value="yes" style="edgeLabel;html=1;align=center;verticalAlign=middle;resizable=0;points=[];fontSize=18;" vertex="1" connectable="0" parent="xxTstOOIaGTohyc_OBlN-8">
          <mxGeometry x="0.1029" y="1" relative="1" as="geometry">
            <mxPoint as="offset" />
          </mxGeometry>
        </mxCell>
        <mxCell id="xxTstOOIaGTohyc_OBlN-19" value="no" style="edgeStyle=orthogonalEdgeStyle;rounded=0;orthogonalLoop=1;jettySize=auto;html=1;exitX=1;exitY=0.5;exitDx=0;exitDy=0;entryX=0.5;entryY=0;entryDx=0;entryDy=0;fontSize=18;" edge="1" parent="1" source="xxTstOOIaGTohyc_OBlN-6" target="xxTstOOIaGTohyc_OBlN-18">
          <mxGeometry relative="1" as="geometry" />
        </mxCell>
        <mxCell id="xxTstOOIaGTohyc_OBlN-6" value="&lt;font style=&quot;font-size: 18px;&quot;&gt;i &amp;lt; arr(length)&lt;/font&gt;" style="rhombus;whiteSpace=wrap;html=1;" vertex="1" parent="1">
          <mxGeometry x="317.5" y="220" width="165" height="120" as="geometry" />
        </mxCell>
        <mxCell id="xxTstOOIaGTohyc_OBlN-14" style="edgeStyle=orthogonalEdgeStyle;rounded=0;orthogonalLoop=1;jettySize=auto;html=1;exitX=0;exitY=0.5;exitDx=0;exitDy=0;entryX=0.5;entryY=0;entryDx=0;entryDy=0;fontSize=18;" edge="1" parent="1" source="xxTstOOIaGTohyc_OBlN-7" target="xxTstOOIaGTohyc_OBlN-11">
          <mxGeometry relative="1" as="geometry" />
        </mxCell>
        <mxCell id="xxTstOOIaGTohyc_OBlN-15" value="yes" style="edgeLabel;html=1;align=center;verticalAlign=middle;resizable=0;points=[];fontSize=18;" vertex="1" connectable="0" parent="xxTstOOIaGTohyc_OBlN-14">
          <mxGeometry x="-0.0364" y="-2" relative="1" as="geometry">
            <mxPoint as="offset" />
          </mxGeometry>
        </mxCell>
        <mxCell id="xxTstOOIaGTohyc_OBlN-16" style="edgeStyle=orthogonalEdgeStyle;rounded=0;orthogonalLoop=1;jettySize=auto;html=1;exitX=1;exitY=0.5;exitDx=0;exitDy=0;fontSize=18;entryX=0.385;entryY=0.1;entryDx=0;entryDy=0;entryPerimeter=0;" edge="1" parent="1" source="xxTstOOIaGTohyc_OBlN-7" target="xxTstOOIaGTohyc_OBlN-6">
          <mxGeometry relative="1" as="geometry">
            <mxPoint x="40" y="480" as="targetPoint" />
            <Array as="points">
              <mxPoint x="320" y="370" />
              <mxPoint x="320" y="540" />
              <mxPoint x="20" y="540" />
              <mxPoint x="20" y="200" />
              <mxPoint x="381" y="200" />
            </Array>
          </mxGeometry>
        </mxCell>
        <mxCell id="xxTstOOIaGTohyc_OBlN-17" value="no" style="edgeLabel;html=1;align=center;verticalAlign=middle;resizable=0;points=[];fontSize=18;" vertex="1" connectable="0" parent="xxTstOOIaGTohyc_OBlN-16">
          <mxGeometry x="-0.9439" y="1" relative="1" as="geometry">
            <mxPoint x="1" as="offset" />
          </mxGeometry>
        </mxCell>
        <mxCell id="xxTstOOIaGTohyc_OBlN-7" value="arr[i].length &amp;lt;= 3" style="rhombus;whiteSpace=wrap;html=1;fontSize=18;" vertex="1" parent="1">
          <mxGeometry x="130" y="320" width="172.5" height="100" as="geometry" />
        </mxCell>
        <mxCell id="xxTstOOIaGTohyc_OBlN-13" style="edgeStyle=orthogonalEdgeStyle;rounded=0;orthogonalLoop=1;jettySize=auto;html=1;exitX=0;exitY=0.5;exitDx=0;exitDy=0;entryX=0;entryY=0;entryDx=0;entryDy=0;fontSize=18;" edge="1" parent="1" source="xxTstOOIaGTohyc_OBlN-11" target="xxTstOOIaGTohyc_OBlN-6">
          <mxGeometry relative="1" as="geometry">
            <Array as="points">
              <mxPoint x="40" y="490" />
              <mxPoint x="40" y="220" />
              <mxPoint x="359" y="220" />
            </Array>
          </mxGeometry>
        </mxCell>
        <mxCell id="xxTstOOIaGTohyc_OBlN-11" value="count ++" style="rounded=0;whiteSpace=wrap;html=1;fontSize=18;" vertex="1" parent="1">
          <mxGeometry x="50" y="460" width="120" height="60" as="geometry" />
        </mxCell>
        <mxCell id="xxTstOOIaGTohyc_OBlN-22" style="edgeStyle=orthogonalEdgeStyle;rounded=0;orthogonalLoop=1;jettySize=auto;html=1;exitX=0.5;exitY=1;exitDx=0;exitDy=0;entryX=0.5;entryY=0;entryDx=0;entryDy=0;fontSize=18;" edge="1" parent="1" source="xxTstOOIaGTohyc_OBlN-18" target="xxTstOOIaGTohyc_OBlN-21">
          <mxGeometry relative="1" as="geometry" />
        </mxCell>
        <mxCell id="xxTstOOIaGTohyc_OBlN-18" value="newArr[count]&lt;br&gt;i, j = 0" style="rounded=0;whiteSpace=wrap;html=1;fontSize=18;" vertex="1" parent="1">
          <mxGeometry x="582.5" y="310" width="120" height="60" as="geometry" />
        </mxCell>
        <mxCell id="xxTstOOIaGTohyc_OBlN-25" style="edgeStyle=orthogonalEdgeStyle;rounded=0;orthogonalLoop=1;jettySize=auto;html=1;exitX=0;exitY=0.5;exitDx=0;exitDy=0;entryX=0.5;entryY=0;entryDx=0;entryDy=0;fontSize=18;" edge="1" parent="1" source="xxTstOOIaGTohyc_OBlN-21" target="xxTstOOIaGTohyc_OBlN-24">
          <mxGeometry relative="1" as="geometry" />
        </mxCell>
        <mxCell id="xxTstOOIaGTohyc_OBlN-26" value="yes" style="edgeLabel;html=1;align=center;verticalAlign=middle;resizable=0;points=[];fontSize=18;" vertex="1" connectable="0" parent="xxTstOOIaGTohyc_OBlN-25">
          <mxGeometry x="-0.0015" y="-2" relative="1" as="geometry">
            <mxPoint x="1" as="offset" />
          </mxGeometry>
        </mxCell>
        <mxCell id="xxTstOOIaGTohyc_OBlN-31" style="edgeStyle=orthogonalEdgeStyle;rounded=0;orthogonalLoop=1;jettySize=auto;html=1;exitX=1;exitY=0.5;exitDx=0;exitDy=0;entryX=0.5;entryY=0;entryDx=0;entryDy=0;fontSize=18;" edge="1" parent="1" source="xxTstOOIaGTohyc_OBlN-21" target="xxTstOOIaGTohyc_OBlN-30">
          <mxGeometry relative="1" as="geometry" />
        </mxCell>
        <mxCell id="xxTstOOIaGTohyc_OBlN-32" value="no" style="edgeLabel;html=1;align=center;verticalAlign=middle;resizable=0;points=[];fontSize=18;" vertex="1" connectable="0" parent="xxTstOOIaGTohyc_OBlN-31">
          <mxGeometry x="-0.1186" y="-1" relative="1" as="geometry">
            <mxPoint as="offset" />
          </mxGeometry>
        </mxCell>
        <mxCell id="xxTstOOIaGTohyc_OBlN-21" value="&lt;font style=&quot;font-size: 18px;&quot;&gt;i &amp;lt; arr(length)&lt;/font&gt;" style="rhombus;whiteSpace=wrap;html=1;" vertex="1" parent="1">
          <mxGeometry x="560" y="400" width="165" height="120" as="geometry" />
        </mxCell>
        <mxCell id="xxTstOOIaGTohyc_OBlN-28" style="edgeStyle=orthogonalEdgeStyle;rounded=0;orthogonalLoop=1;jettySize=auto;html=1;exitX=0;exitY=0.5;exitDx=0;exitDy=0;entryX=0.5;entryY=0;entryDx=0;entryDy=0;fontSize=18;" edge="1" parent="1" source="xxTstOOIaGTohyc_OBlN-24" target="xxTstOOIaGTohyc_OBlN-27">
          <mxGeometry relative="1" as="geometry" />
        </mxCell>
        <mxCell id="xxTstOOIaGTohyc_OBlN-29" value="yes" style="edgeLabel;html=1;align=center;verticalAlign=middle;resizable=0;points=[];fontSize=18;" vertex="1" connectable="0" parent="xxTstOOIaGTohyc_OBlN-28">
          <mxGeometry x="-0.1818" relative="1" as="geometry">
            <mxPoint as="offset" />
          </mxGeometry>
        </mxCell>
        <mxCell id="xxTstOOIaGTohyc_OBlN-34" style="edgeStyle=orthogonalEdgeStyle;rounded=0;orthogonalLoop=1;jettySize=auto;html=1;exitX=1;exitY=0.5;exitDx=0;exitDy=0;entryX=0.303;entryY=0.167;entryDx=0;entryDy=0;entryPerimeter=0;fontSize=18;" edge="1" parent="1" source="xxTstOOIaGTohyc_OBlN-24" target="xxTstOOIaGTohyc_OBlN-21">
          <mxGeometry relative="1" as="geometry">
            <Array as="points">
              <mxPoint x="650" y="600" />
              <mxPoint x="650" y="740" />
              <mxPoint x="360" y="740" />
              <mxPoint x="360" y="400" />
              <mxPoint x="610" y="400" />
            </Array>
          </mxGeometry>
        </mxCell>
        <mxCell id="xxTstOOIaGTohyc_OBlN-35" value="no" style="edgeLabel;html=1;align=center;verticalAlign=middle;resizable=0;points=[];fontSize=18;" vertex="1" connectable="0" parent="xxTstOOIaGTohyc_OBlN-34">
          <mxGeometry x="-0.8379" y="1" relative="1" as="geometry">
            <mxPoint as="offset" />
          </mxGeometry>
        </mxCell>
        <mxCell id="xxTstOOIaGTohyc_OBlN-24" value="arr[i].length &amp;lt;= 3" style="rhombus;whiteSpace=wrap;html=1;fontSize=18;" vertex="1" parent="1">
          <mxGeometry x="450" y="550" width="172.5" height="100" as="geometry" />
        </mxCell>
        <mxCell id="xxTstOOIaGTohyc_OBlN-33" style="edgeStyle=orthogonalEdgeStyle;rounded=0;orthogonalLoop=1;jettySize=auto;html=1;exitX=0;exitY=0.5;exitDx=0;exitDy=0;entryX=0.145;entryY=0.342;entryDx=0;entryDy=0;entryPerimeter=0;fontSize=18;" edge="1" parent="1" source="xxTstOOIaGTohyc_OBlN-27" target="xxTstOOIaGTohyc_OBlN-21">
          <mxGeometry relative="1" as="geometry">
            <Array as="points">
              <mxPoint x="380" y="690" />
              <mxPoint x="380" y="420" />
              <mxPoint x="584" y="420" />
            </Array>
          </mxGeometry>
        </mxCell>
        <mxCell id="xxTstOOIaGTohyc_OBlN-27" value="newArr[j]=arr[i]&lt;br&gt;j++" style="rounded=0;whiteSpace=wrap;html=1;fontSize=18;" vertex="1" parent="1">
          <mxGeometry x="390" y="660" width="120" height="60" as="geometry" />
        </mxCell>
        <mxCell id="xxTstOOIaGTohyc_OBlN-30" value="print newArr[]" style="rounded=0;whiteSpace=wrap;html=1;fontSize=18;" vertex="1" parent="1">
          <mxGeometry x="702.5" y="580" width="120" height="60" as="geometry" />
        </mxCell>
      </root>
    </mxGraphModel>
  </diagram>
</mxfile>
